<svg width="238" height="52" viewBox="0 0 238 52" fill="none" xmlns="http://www.w3.org/2000/svg">
<g filter="url(#filter0_b_49_746)">
<g filter="url(#filter1_b_49_746)">
<path d="M0.679916 1.89429C0.236893 2.44941 0.00273132 3.07622 -1.52588e-05 3.71429C0.0253448 4.37174 0.296082 5.01263 0.784531 5.57143L17.5216 25.3686L0.732224 46.4286C0.273163 46.9932 0.0314789 47.6337 0.0314789 48.2857C0.0314789 48.9377 0.273163 49.5782 0.732224 50.1429C1.1886 50.7042 1.84387 51.171 2.63298 51.4968C3.42209 51.8226 4.31754 51.9961 5.2303 52L237.217 52V51.0095C237.217 51.0095 236.12 27.5952 236.229 25.3686L236.229 5.38265e-05L5.2303 0C4.30351 0.00113418 3.39377 0.17713 2.59422 0.509973C1.79468 0.842817 1.13405 1.32056 0.679916 1.89429Z" fill="#FF7A7A" fill-opacity="0.75"/>
</g>
</g>
<path d="M43.5 21.5C44.6867 21.5 45.8467 21.1481 46.8334 20.4888C47.8201 19.8295 48.5892 18.8925 49.0433 17.7961C49.4974 16.6997 49.6162 15.4933 49.3847 14.3295C49.1532 13.1656 48.5818 12.0965 47.7426 11.2574C46.9035 10.4182 45.8344 9.8468 44.6705 9.61529C43.5067 9.38378 42.3003 9.5026 41.2039 9.95673C40.1075 10.4109 39.1705 11.1799 38.5112 12.1666C37.8519 13.1533 37.5 14.3133 37.5 15.5C37.5 17.0913 38.1321 18.6174 39.2574 19.7426C40.3826 20.8679 41.9087 21.5 43.5 21.5Z" fill="white"/>
<path d="M55.5 24.5C56.39 24.5 57.26 24.2361 58.0001 23.7416C58.7401 23.2471 59.3169 22.5443 59.6575 21.7221C59.9981 20.8998 60.0872 19.995 59.9135 19.1221C59.7399 18.2492 59.3113 17.4474 58.682 16.818C58.0526 16.1887 57.2508 15.7601 56.3779 15.5865C55.505 15.4128 54.6002 15.5019 53.7779 15.8425C52.9557 16.1831 52.2529 16.7599 51.7584 17.4999C51.2639 18.24 51 19.11 51 20C51 21.1935 51.4741 22.3381 52.318 23.182C53.1619 24.0259 54.3065 24.5 55.5 24.5Z" fill="white"/>
<path d="M61.5 35C61.8978 35 62.2794 34.842 62.5607 34.5607C62.842 34.2793 63 33.8978 63 33.5C62.9988 32.0981 62.6047 30.7246 61.8624 29.5353C61.1201 28.346 60.0594 27.3886 58.8005 26.7717C57.5417 26.1548 56.1351 25.903 54.7404 26.045C53.3457 26.187 52.0187 26.717 50.91 27.575C49.4408 26.1115 47.5711 25.1159 45.5367 24.7136C43.5024 24.3114 41.3945 24.5205 39.4788 25.3147C37.5632 26.1089 35.9256 27.4525 34.7726 29.1761C33.6196 30.8998 33.0028 32.9263 33 35C33 35.3978 33.158 35.7793 33.4393 36.0607C33.7206 36.342 34.1022 36.5 34.5 36.5H52.5C52.8978 36.5 53.2794 36.342 53.5607 36.0607C53.842 35.7793 54 35.3978 54 35" fill="white"/>
<defs>
<filter id="filter0_b_49_746" x="-4" y="-4" width="245.217" height="60" filterUnits="userSpaceOnUse" color-interpolation-filters="sRGB">
<feFlood flood-opacity="0" result="BackgroundImageFix"/>
<feGaussianBlur in="BackgroundImageFix" stdDeviation="2"/>
<feComposite in2="SourceAlpha" operator="in" result="effect1_backgroundBlur_49_746"/>
<feBlend mode="normal" in="SourceGraphic" in2="effect1_backgroundBlur_49_746" result="shape"/>
</filter>
<filter id="filter1_b_49_746" x="-4" y="-4" width="245.217" height="60" filterUnits="userSpaceOnUse" color-interpolation-filters="sRGB">
<feFlood flood-opacity="0" result="BackgroundImageFix"/>
<feGaussianBlur in="BackgroundImageFix" stdDeviation="2"/>
<feComposite in2="SourceAlpha" operator="in" result="effect1_backgroundBlur_49_746"/>
<feBlend mode="normal" in="SourceGraphic" in2="effect1_backgroundBlur_49_746" result="shape"/>
</filter>
</defs>
</svg>
